<?xml version="1.0"?>
<svg height="136" width="127" xmlns="http://www.w3.org/2000/svg">
  <path xmlns="http://www.w3.org/2000/svg"
        d="m124.699997,66.5c0,6.800003 -2.699997,13 -7.100006,17.5c-0.099991,0.100006 -0.399994,0.399994 -0.399994,0.399994c-3.5,3.400009 -7,6.700012 -10.699997,9.800003c-4.800003,4 -9.699997,7.699997 -14.800003,11.199997c-5.300003,3.600006 -10.800003,6.900009 -16.399994,9.800003c-2.200012,-4.399994 -0.700012,-9.800003 3.5,-12.399994c0,0 0,0 0,0c0.199997,-0.100006 0.299988,-0.199997 0.5,-0.300003c0,0 0,0 0,0c2.399994,-1.399994 4.5,-3.199997 6.399994,-5.399994c1.899994,-2.200012 3.300003,-4.700012 4.300003,-7.300003c0.5,-1.400009 0.899994,-2.900009 1.199997,-4.300003c0,0 0,-0.199997 0.100006,-0.300003c0,0 0,0 0,0c0.099991,-1.099991 -0.600006,-2.199997 -1.700012,-2.399994c0,0 -0.199997,0 -0.199997,0c-0.599991,-0.100006 -1.199997,-0.199997 -1.800003,-0.199997c0.800003,-2.800003 1.100006,-5.600006 0.900009,-8.300003c-0.199997,-3 -0.900009,-5.900009 -2.100006,-8.600006c0,0 0,0 0,0c-0.599991,-1.300003 -1.199997,-2.5 -2,-3.699997c1.800003,0.699997 3.699997,1 5.600006,1c0.099991,0 0.099991,0 0.199997,0c2.100006,0 4.199997,-0.800003 6,-2.199997c2.300003,-1.900009 3.399994,-4.600006 3.399994,-7.300003l0,0c0,-4.199997 -1,-8.200005 -2.899994,-11.599998c-2.100006,-4 -5.199997,-7.300003 -8.899994,-9.700005c-3.900009,-2.400002 -8.400009,-3.799995 -13.300003,-3.799995c-3,0 -5.900009,0.5 -8.600006,1.5c-2.800003,1 -5.399994,2.5 -7.599991,4.399994l0,0c-2.200005,1.800003 -4.000008,4 -5.500008,6.5c-0.199997,-0.299995 -0.5,-0.5 -0.699997,-0.699997c-1.099998,-0.900002 -2.5,-1.400002 -3.800003,-1.400002c0,-8.599998 -6.899994,-15.5 -15.5,-15.5c-8.599998,0 -15.5,6.900002 -15.5,15.5c0,0.099998 0,0.200005 0,0.300003c0,3.799995 0.900002,7.299995 2.400002,10.5c1.5,3.199997 3.800003,6.100006 6.5,8.399994c0,0 0.099998,0.100006 0.099998,0.100006c1.400002,1.199997 2.400002,2.699997 2.900002,4.399994c1,3 0.400002,6.5 -1.799995,9.100006c-3.400002,4.100006 -9.5,4.600006 -13.5,1.199997c-1.300003,-1.099991 -2.200005,-2.399994 -2.700005,-3.800003c-1,1.600006 -1.799995,3.5 -2.099998,5.5c-1,5.700012 1.199997,11.200012 5.300003,14.600006c2,1.699997 4.5,2.899994 7.199997,3.399994c5.099998,0.900009 10.099998,-0.799988 13.599998,-4.199997c1.099998,5.5 3.900002,10.600006 8.5,14.5c6.599998,5.5 7.400002,15.300003 1.900002,21.900009c-3,3.5 -7.199997,5.399994 -11.5,5.5c0,0 0,0 -0.099998,0c-0.200005,0 -0.5,0 -0.700005,0l0,0c-4.099998,-0.100006 -8.299995,-1.200012 -12.099998,-3.400009c-5.799995,-3.300003 -9.699997,-8.599991 -11.5,-14.599991c0,0 0,0 0,0c-0.099998,-0.200012 -0.299995,-1.100006 -0.400002,-1.400009c-7.899994,-30 -7.399994,-60.199997 0.100006,-88.199997c0,0 0,0 0,0c0,-0.199997 0.099998,-0.400002 0.099998,-0.5c0,0 0,0 0,0c1.699997,-6.099998 5.699997,-11.5 11.599998,-14.899994c5.699997,-3.300003 12.099998,-4.100006 18,-2.800003c0,0 0,0 0,0c0.599998,0.199997 1.300003,0.300003 1.900002,0.5c0,0 0,0 0,0c27.800003,7.599998 54.199997,22.299995 76.099991,44.099991c0.100006,0.100006 0.400009,0.400009 0.400009,0.400009c4.399994,4.199997 7.199997,10.300003 7.199997,17.199997z"
        fill="#FFFFFF" id="Trademark"/>
</svg>
